<svg viewBox="0 0 320 180" aria-hidden="true" focusable="false" class="puzzle-art"><rect width="320" height="180" fill="#e1e8dc"/><circle cx="290" cy="-18" r="105" fill="#cedac8" opacity=".6"/><circle cx="24" cy="190" r="72" fill="#cedac8" opacity=".5"/><g transform="translate(95,24) rotate(-4 65 65)"><rect x="-5" y="-5" width="140" height="140" rx="7" fill="#fcfbf5" stroke="#cedac8"/><rect x="0" y="0" width="25" height="25" rx="2" fill="#fafaf4" stroke="#cedac8" stroke-width=".5"/><rect x="26" y="0" width="25" height="25" rx="2" fill="#fafaf4" stroke="#cedac8" stroke-width=".5"/><text x="38" y="18" font-size="14" font-family="system-ui,sans-serif" font-weight="500" text-anchor="middle" fill="#244d3f">♧</text><rect x="52" y="0" width="25" height="25" rx="2" fill="#fafaf4" stroke="#cedac8" stroke-width=".5"/><text x="64" y="18" font-size="14" font-family="system-ui,sans-serif" font-weight="500" text-anchor="middle" fill="#a7784b">△</text><rect x="78" y="0" width="25" height="25" rx="2" fill="#fafaf4" stroke="#cedac8" stroke-width=".5"/><rect x="104" y="0" width="25" height="25" rx="2" fill="#fafaf4" stroke="#cedac8" stroke-width=".5"/><rect x="0" y="26" width="25" height="25" rx="2" fill="#fafaf4" stroke="#cedac8" stroke-width=".5"/><rect x="26" y="26" width="25" height="25" rx="2" fill="#fafaf4" stroke="#cedac8" stroke-width=".5"/><rect x="52" y="26" width="25" height="25" rx="2" fill="#fafaf4" stroke="#cedac8" stroke-width=".5"/><rect x="78" y="26" width="25" height="25" rx="2" fill="#fafaf4" stroke="#cedac8" stroke-width=".5"/><text x="90" y="44" font-size="14" font-family="system-ui,sans-serif" font-weight="500" text-anchor="middle" fill="#244d3f">♧</text><rect x="104" y="26" width="25" height="25" rx="2" fill="#fafaf4" stroke="#cedac8" stroke-width=".5"/><text x="116" y="44" font-size="14" font-family="system-ui,sans-serif" font-weight="500" text-anchor="middle" fill="#a7784b">△</text><rect x="0" y="52" width="25" height="25" rx="2" fill="#fafaf4" stroke="#cedac8" stroke-width=".5"/><rect x="26" y="52" width="25" height="25" rx="2" fill="#fafaf4" stroke="#cedac8" stroke-width=".5"/><rect x="52" y="52" width="25" height="25" rx="2" fill="#fafaf4" stroke="#cedac8" stroke-width=".5"/><rect x="78" y="52" width="25" height="25" rx="2" fill="#fafaf4" stroke="#cedac8" stroke-width=".5"/><rect x="104" y="52" width="25" height="25" rx="2" fill="#fafaf4" stroke="#cedac8" stroke-width=".5"/><rect x="0" y="78" width="25" height="25" rx="2" fill="#fafaf4" stroke="#cedac8" stroke-width=".5"/><text x="12" y="96" font-size="14" font-family="system-ui,sans-serif" font-weight="500" text-anchor="middle" fill="#244d3f">♧</text><rect x="26" y="78" width="25" height="25" rx="2" fill="#fafaf4" stroke="#cedac8" stroke-width=".5"/><rect x="52" y="78" width="25" height="25" rx="2" fill="#fafaf4" stroke="#cedac8" stroke-width=".5"/><rect x="78" y="78" width="25" height="25" rx="2" fill="#fafaf4" stroke="#cedac8" stroke-width=".5"/><text x="90" y="96" font-size="14" font-family="system-ui,sans-serif" font-weight="500" text-anchor="middle" fill="#244d3f">♧</text><rect x="104" y="78" width="25" height="25" rx="2" fill="#fafaf4" stroke="#cedac8" stroke-width=".5"/><rect x="0" y="104" width="25" height="25" rx="2" fill="#fafaf4" stroke="#cedac8" stroke-width=".5"/><text x="12" y="122" font-size="14" font-family="system-ui,sans-serif" font-weight="500" text-anchor="middle" fill="#a7784b">△</text><rect x="26" y="104" width="25" height="25" rx="2" fill="#fafaf4" stroke="#cedac8" stroke-width=".5"/><rect x="52" y="104" width="25" height="25" rx="2" fill="#fafaf4" stroke="#cedac8" stroke-width=".5"/><rect x="78" y="104" width="25" height="25" rx="2" fill="#fafaf4" stroke="#cedac8" stroke-width=".5"/><rect x="104" y="104" width="25" height="25" rx="2" fill="#fafaf4" stroke="#cedac8" stroke-width=".5"/></g></svg>