<svg viewBox="0 0 1000 660" xmlns="http://www.w3.org/2000/svg" aria-hidden="true"><defs><linearGradient id="roomwall" x2="0" y2="1"><stop stop-color="#302e27"/><stop offset="1" stop-color="#66604c"/></linearGradient><linearGradient id="outside" x2="0" y2="1"><stop stop-color="#274956"/><stop offset="1" stop-color="#93a38d"/></linearGradient><radialGradient id="glow"><stop stop-color="#f4d182" stop-opacity=".28"/><stop offset="1" stop-color="#e4bb78" stop-opacity="0"/></radialGradient><radialGradient id="vignette"><stop offset=".4" stop-opacity="0"/><stop offset="1" stop-color="#051315" stop-opacity=".65"/></radialGradient></defs><rect width="1000" height="660" fill="url(#roomwall)"/><path d="M0 0L230 78H770L1000 0M0 660L230 435H770L1000 660" fill="#111f21" opacity=".45"/><path d="M0 550H1000M230 435L118 660m288-225-28 225m203-225 47 225m142-225 124 225" fill="none" stroke="#969477" stroke-opacity=".2" stroke-width="2"/><path d="M18 44V422M295 75V435M704 74V435M974 42V421M0 58L232 111H770L1000 58" fill="none" stroke="#a8a383" stroke-opacity=".15" stroke-width="8"/><g><rect x="18" y="75" width="263" height="300" fill="#1d2926" stroke="#71674f" stroke-width="8"/><rect x="30" y="114.13173248339444" width="10.603227857267484" height="33.868267516605556" fill="#78836a"/><path d="M32 140h5" stroke="#c5b289" stroke-width="1"/><rect x="47" y="102.56641895510256" width="12.353444234700873" height="45.43358104489744" fill="#9f7752"/><path d="M49 140h5" stroke="#c5b289" stroke-width="1"/><rect x="64" y="109.11724168714136" width="14.19633841025643" height="38.88275831285864" fill="#666b6b"/><path d="M66 140h5" stroke="#c5b289" stroke-width="1"/><rect x="81" y="120.34488947317004" width="11.513734966749325" height="27.655110526829958" fill="#ae9b74"/><path d="M83 140h5" stroke="#c5b289" stroke-width="1"/><rect x="98" y="106.19198670331389" width="10.394687862833962" height="41.80801329668611" fill="#654d43"/><path d="M100 140h5" stroke="#c5b289" stroke-width="1"/><rect x="115" y="115.24544153921306" width="14.241275339620188" height="32.75455846078694" fill="#78836a"/><path d="M117 140h5" stroke="#c5b289" stroke-width="1"/><rect x="132" y="108.89750624727458" width="8.829579763812944" height="39.10249375272542" fill="#9f7752"/><path d="M134 140h5" stroke="#c5b289" stroke-width="1"/><rect x="149" y="113.85794226825237" width="10.81254674331285" height="34.14205773174763" fill="#666b6b"/><path d="M151 140h5" stroke="#c5b289" stroke-width="1"/><rect x="166" y="107.22163572628051" width="14.041066288715228" height="40.77836427371949" fill="#ae9b74"/><path d="M168 140h5" stroke="#c5b289" stroke-width="1"/><rect x="183" y="121.37608720548451" width="13.930204731645063" height="26.62391279451549" fill="#654d43"/><path d="M185 140h5" stroke="#c5b289" stroke-width="1"/><rect x="200" y="114.5664027472958" width="8.8465395483654" height="33.4335972527042" fill="#78836a"/><path d="M202 140h5" stroke="#c5b289" stroke-width="1"/><rect x="217" y="117.04674114659429" width="9.077510174596682" height="30.953258853405714" fill="#9f7752"/><path d="M219 140h5" stroke="#c5b289" stroke-width="1"/><rect x="234" y="109.56162574980408" width="12.802096334984526" height="38.43837425019592" fill="#666b6b"/><path d="M236 140h5" stroke="#c5b289" stroke-width="1"/><rect x="251" y="116.5431070830673" width="9.551471348153427" height="31.456892916932702" fill="#ae9b74"/><path d="M253 140h5" stroke="#c5b289" stroke-width="1"/><rect x="30" y="165.00546576362103" width="9.366051305783913" height="35.99453423637897" fill="#654d43"/><path d="M32 193h5" stroke="#c5b289" stroke-width="1"/><rect x="47" y="162.79297327250242" width="14.159071961650625" height="38.20702672749758" fill="#78836a"/><path d="M49 193h5" stroke="#c5b289" stroke-width="1"/><rect x="64" y="163.71318129170686" width="13.123973604058847" height="37.28681870829314" fill="#9f7752"/><path d="M66 193h5" stroke="#c5b289" stroke-width="1"/><rect x="81" y="170.29328843392432" width="10.310960122616962" height="30.706711566075683" fill="#666b6b"/><path d="M83 193h5" stroke="#c5b289" stroke-width="1"/><rect x="98" y="158.5553363179788" width="11.184621917782351" height="42.4446636820212" fill="#ae9b74"/><path d="M100 193h5" stroke="#c5b289" stroke-width="1"/><rect x="115" y="171.44231506809592" width="12.996973239118233" height="29.557684931904078" fill="#654d43"/><path d="M117 193h5" stroke="#c5b289" stroke-width="1"/><rect x="132" y="155.46671144012362" width="11.606152975698933" height="45.53328855987638" fill="#78836a"/><path d="M134 193h5" stroke="#c5b289" stroke-width="1"/><rect x="149" y="158.92061090283096" width="12.877873859601095" height="42.07938909716904" fill="#9f7752"/><path d="M151 193h5" stroke="#c5b289" stroke-width="1"/><rect x="166" y="167.7071681274101" width="13.461978480918333" height="33.292831872589886" fill="#666b6b"/><path d="M168 193h5" stroke="#c5b289" stroke-width="1"/><rect x="183" y="171.65208846330643" width="9.477671450236812" height="29.347911536693573" fill="#ae9b74"/><path d="M185 193h5" stroke="#c5b289" stroke-width="1"/><rect x="200" y="161.15571610350162" width="8.905645482009277" height="39.84428389649838" fill="#654d43"/><path d="M202 193h5" stroke="#c5b289" stroke-width="1"/><rect x="217" y="175.3764027673751" width="13.210905109765008" height="25.62359723262489" fill="#78836a"/><path d="M219 193h5" stroke="#c5b289" stroke-width="1"/><rect x="234" y="161.9190338542685" width="10.344115181593224" height="39.08096614573151" fill="#9f7752"/><path d="M236 193h5" stroke="#c5b289" stroke-width="1"/><rect x="251" y="160.36391714587808" width="13.729262221837416" height="40.63608285412192" fill="#666b6b"/><path d="M253 193h5" stroke="#c5b289" stroke-width="1"/><rect x="30" y="220.03569226060063" width="13.57881518243812" height="33.96430773939937" fill="#ae9b74"/><path d="M32 246h5" stroke="#c5b289" stroke-width="1"/><rect x="47" y="213.30449718795717" width="11.82190804486163" height="40.69550281204283" fill="#654d43"/><path d="M49 246h5" stroke="#c5b289" stroke-width="1"/><rect x="64" y="228.55733135621995" width="12.523840171052143" height="25.442668643780053" fill="#78836a"/><path d="M66 246h5" stroke="#c5b289" stroke-width="1"/><rect x="81" y="207.9013828113675" width="10.85390123934485" height="46.09861718863249" fill="#9f7752"/><path d="M83 246h5" stroke="#c5b289" stroke-width="1"/><rect x="98" y="220.7880402104929" width="14.860676038777456" height="33.21195978950709" fill="#666b6b"/><path d="M100 246h5" stroke="#c5b289" stroke-width="1"/><rect x="115" y="218.20138845779002" width="12.47707033273764" height="35.79861154220998" fill="#ae9b74"/><path d="M117 246h5" stroke="#c5b289" stroke-width="1"/><rect x="132" y="215.963189936243" width="9.738822440383956" height="38.036810063757" fill="#654d43"/><path d="M134 246h5" stroke="#c5b289" stroke-width="1"/><rect x="149" y="216.19268141314387" width="14.097726121777669" height="37.80731858685613" fill="#78836a"/><path d="M151 246h5" stroke="#c5b289" stroke-width="1"/><rect x="166" y="225.14896982256323" width="8.381688790163025" height="28.85103017743677" fill="#9f7752"/><path d="M168 246h5" stroke="#c5b289" stroke-width="1"/><rect x="183" y="212.70138825289905" width="14.335585012333468" height="41.29861174710095" fill="#666b6b"/><path d="M185 246h5" stroke="#c5b289" stroke-width="1"/><rect x="200" y="218.64387659262866" width="14.20713869552128" height="35.35612340737134" fill="#ae9b74"/><path d="M202 246h5" stroke="#c5b289" stroke-width="1"/><rect x="217" y="222.1182794123888" width="13.458278296748176" height="31.8817205876112" fill="#654d43"/><path d="M219 246h5" stroke="#c5b289" stroke-width="1"/><rect x="234" y="221.66340678650886" width="11.822057828074321" height="32.33659321349114" fill="#78836a"/><path d="M236 246h5" stroke="#c5b289" stroke-width="1"/><rect x="251" y="214.98678188212216" width="11.525822368683293" height="39.01321811787784" fill="#9f7752"/><path d="M253 246h5" stroke="#c5b289" stroke-width="1"/><rect x="30" y="281.58920226898044" width="10.000320232240483" height="25.410797731019557" fill="#666b6b"/><path d="M32 299h5" stroke="#c5b289" stroke-width="1"/><rect x="47" y="260.98357002809644" width="8.729424875462428" height="46.01642997190356" fill="#ae9b74"/><path d="M49 299h5" stroke="#c5b289" stroke-width="1"/><rect x="64" y="267.56389886233956" width="14.503528071334586" height="39.436101137660444" fill="#654d43"/><path d="M66 299h5" stroke="#c5b289" stroke-width="1"/><rect x="81" y="270.32298453710973" width="14.159001807915047" height="36.67701546289027" fill="#78836a"/><path d="M83 299h5" stroke="#c5b289" stroke-width="1"/><rect x="98" y="262.71292810421437" width="11.353899811161682" height="44.28707189578563" fill="#9f7752"/><path d="M100 299h5" stroke="#c5b289" stroke-width="1"/><rect x="115" y="267.1165294870734" width="14.983780527720228" height="39.88347051292658" fill="#666b6b"/><path d="M117 299h5" stroke="#c5b289" stroke-width="1"/><rect x="132" y="272.7745221303776" width="14.91868184111081" height="34.22547786962241" fill="#ae9b74"/><path d="M134 299h5" stroke="#c5b289" stroke-width="1"/><rect x="149" y="267.71869754232466" width="13.780363732250407" height="39.28130245767534" fill="#654d43"/><path d="M151 299h5" stroke="#c5b289" stroke-width="1"/><rect x="166" y="264.41917168255895" width="12.915458532748744" height="42.580828317441046" fill="#78836a"/><path d="M168 299h5" stroke="#c5b289" stroke-width="1"/><rect x="183" y="268.5903732739389" width="12.492629356915131" height="38.409626726061106" fill="#9f7752"/><path d="M185 299h5" stroke="#c5b289" stroke-width="1"/><rect x="200" y="274.0397872412577" width="13.197735735913739" height="32.96021275874227" fill="#666b6b"/><path d="M202 299h5" stroke="#c5b289" stroke-width="1"/><rect x="217" y="279.71106460504234" width="12.257841415004805" height="27.28893539495766" fill="#ae9b74"/><path d="M219 299h5" stroke="#c5b289" stroke-width="1"/><rect x="234" y="275.2938132835552" width="13.930172712309286" height="31.70618671644479" fill="#654d43"/><path d="M236 299h5" stroke="#c5b289" stroke-width="1"/><rect x="251" y="265.0712123811245" width="9.083346775034443" height="41.9287876188755" fill="#78836a"/><path d="M253 299h5" stroke="#c5b289" stroke-width="1"/><path d="M20 150H280M20 203H280M20 256H280M20 309H280" stroke="#807257" stroke-width="8"/></g><path d="M380 346V155Q500-23 620 155V346Z" fill="url(#outside)" stroke="#8a917a" stroke-width="15"/><circle cx="523" cy="139" r="27" fill="#d8d8b6" opacity=".8"/><path d="M380 250Q430 194 475 233Q540 180 620 228V346H380" fill="#3d6756"/><path d="M380 280Q515 253 620 272V346H380" fill="#527558"/><path d="M500 82V350M380 221H620" stroke="#596b61" stroke-width="9"/><path d="M407 138V347M594 138V347" stroke="#7b8370" stroke-width="4"/><path d="M330 539V350Q430 220 530 350V539Z" fill="#4b4938" stroke="#898367" stroke-width="14"/><path d="M352 337V527m32-215v216m32-228v228m32-226v226m32-211v210m31-193v193" stroke="#9c9573" stroke-opacity=".3" stroke-width="3"/><circle cx="383" cy="414" r="22" fill="#b49b66" stroke="#575744" stroke-width="5"/><circle cx="432" cy="414" r="22" fill="#b49b66" stroke="#575744" stroke-width="5"/><circle cx="481" cy="414" r="22" fill="#b49b66" stroke="#575744" stroke-width="5"/><g><ellipse cx="708" cy="394" rx="57" ry="66" fill="url(#glow)"/><path d="M706 411v-45h9v45" fill="#dcc99d"/><path d="M710 365Q698 352 712 341Q726 355 710 365" fill="#e7c16e"/><path d="M689 413h43m-22 0v15m-21 1h45" stroke="#b29158" stroke-width="4"/></g><rect width="1000" height="660" fill="url(#vignette)"/></svg>