<svg xmlns="http://www.w3.org/2000/svg" viewBox="0 0 400 300" width="800" height="600"><rect x="0" y="0" width="400" height="300" rx="0" fill="#173e49"/><circle cx="317" cy="39" r="100" fill="#214752"/><rect x="74" y="30" width="220" height="230" rx="0" fill="#234852"/><path d="M48 59 182 5 322 59Z" fill="#172d38"/><rect x="103" y="101" width="82" height="159" rx="40" fill="#172d38"/><rect x="214" y="98" width="34" height="53" rx="16" fill="#dbac60"/><path d="M231 98v53M214 127.15h34" fill="none" stroke="#173e49" stroke-width="4" stroke-linecap="round" stroke-linejoin="round"/><path d="M45 269H352M35 280H365" fill="none" stroke="#87a997" stroke-width="5" stroke-linecap="round" stroke-linejoin="round"/><g transform="translate(342 211)"><path d="M0 50V-45" fill="none" stroke="#87a997" stroke-width="3" stroke-linecap="round" stroke-linejoin="round"/><path d="M0 -15Q35 -20 25 -42Q0 -37 0 -15" fill="#87a997"/><path d="M0 7Q-35 2 -25 -20Q0 -15 0 7" fill="#87a997"/><path d="M0 29Q35 24 25 2Q0 7 0 29" fill="#87a997"/></g><g transform="translate(130 132)"><circle cx="0" cy="0" r="63" fill="#28515a"/><rect x="-22" y="-27" width="44" height="59" rx="5" fill="#dbac60"/><path d="M-28-31H28M-28 35H28M0-31V-46M-16-46H16" fill="none" stroke="#f4ead4" stroke-width="5" stroke-linecap="round" stroke-linejoin="round"/><path d="M-13-24V29M13-24V29" fill="none" stroke="#173e49" stroke-width="4" stroke-linecap="round" stroke-linejoin="round"/></g><g opacity=".10"><circle cx="13" cy="17" r="1.2" fill="#dbac60"/><circle cx="150" cy="96" r="0.65" fill="#f4ead4"/><circle cx="287" cy="175" r="0.65" fill="#dbac60"/><circle cx="24" cy="254" r="1.2" fill="#f4ead4"/><circle cx="161" cy="33" r="0.65" fill="#dbac60"/><circle cx="298" cy="112" r="0.65" fill="#f4ead4"/><circle cx="35" cy="191" r="1.2" fill="#dbac60"/><circle cx="172" cy="270" r="0.65" fill="#f4ead4"/><circle cx="309" cy="49" r="0.65" fill="#dbac60"/><circle cx="46" cy="128" r="1.2" fill="#f4ead4"/><circle cx="183" cy="207" r="0.65" fill="#dbac60"/><circle cx="320" cy="286" r="0.65" fill="#f4ead4"/><circle cx="57" cy="65" r="1.2" fill="#dbac60"/><circle cx="194" cy="144" r="0.65" fill="#f4ead4"/><circle cx="331" cy="223" r="0.65" fill="#dbac60"/><circle cx="68" cy="2" r="1.2" fill="#f4ead4"/><circle cx="205" cy="81" r="0.65" fill="#dbac60"/><circle cx="342" cy="160" r="0.65" fill="#f4ead4"/><circle cx="79" cy="239" r="1.2" fill="#dbac60"/><circle cx="216" cy="18" r="0.65" fill="#f4ead4"/><circle cx="353" cy="97" r="0.65" fill="#dbac60"/><circle cx="90" cy="176" r="1.2" fill="#f4ead4"/><circle cx="227" cy="255" r="0.65" fill="#dbac60"/><circle cx="364" cy="34" r="0.65" fill="#f4ead4"/><circle cx="101" cy="113" r="1.2" fill="#dbac60"/><circle cx="238" cy="192" r="0.65" fill="#f4ead4"/><circle cx="375" cy="271" r="0.65" fill="#dbac60"/><circle cx="112" cy="50" r="1.2" fill="#f4ead4"/><circle cx="249" cy="129" r="0.65" fill="#dbac60"/><circle cx="386" cy="208" r="0.65" fill="#f4ead4"/><circle cx="123" cy="287" r="1.2" fill="#dbac60"/><circle cx="260" cy="66" r="0.65" fill="#f4ead4"/><circle cx="397" cy="145" r="0.65" fill="#dbac60"/><circle cx="134" cy="224" r="1.2" fill="#f4ead4"/><circle cx="271" cy="3" r="0.65" fill="#dbac60"/><circle cx="8" cy="82" r="0.65" fill="#f4ead4"/><circle cx="145" cy="161" r="1.2" fill="#dbac60"/><circle cx="282" cy="240" r="0.65" fill="#f4ead4"/><circle cx="19" cy="19" r="0.65" fill="#dbac60"/><circle cx="156" cy="98" r="1.2" fill="#f4ead4"/><circle cx="293" cy="177" r="0.65" fill="#dbac60"/><circle cx="30" cy="256" r="0.65" fill="#f4ead4"/><circle cx="167" cy="35" r="1.2" fill="#dbac60"/><circle cx="304" cy="114" r="0.65" fill="#f4ead4"/><circle cx="41" cy="193" r="0.65" fill="#dbac60"/><circle cx="178" cy="272" r="1.2" fill="#f4ead4"/><circle cx="315" cy="51" r="0.65" fill="#dbac60"/><circle cx="52" cy="130" r="0.65" fill="#f4ead4"/><circle cx="189" cy="209" r="1.2" fill="#dbac60"/><circle cx="326" cy="288" r="0.65" fill="#f4ead4"/><circle cx="63" cy="67" r="0.65" fill="#dbac60"/><circle cx="200" cy="146" r="1.2" fill="#f4ead4"/><circle cx="337" cy="225" r="0.65" fill="#dbac60"/><circle cx="74" cy="4" r="0.65" fill="#f4ead4"/><circle cx="211" cy="83" r="1.2" fill="#dbac60"/><circle cx="348" cy="162" r="0.65" fill="#f4ead4"/><circle cx="85" cy="241" r="0.65" fill="#dbac60"/><circle cx="222" cy="20" r="1.2" fill="#f4ead4"/><circle cx="359" cy="99" r="0.65" fill="#dbac60"/><circle cx="96" cy="178" r="0.65" fill="#f4ead4"/><circle cx="233" cy="257" r="1.2" fill="#dbac60"/><circle cx="370" cy="36" r="0.65" fill="#f4ead4"/><circle cx="107" cy="115" r="0.65" fill="#dbac60"/><circle cx="244" cy="194" r="1.2" fill="#f4ead4"/><circle cx="381" cy="273" r="0.65" fill="#dbac60"/><circle cx="118" cy="52" r="0.65" fill="#f4ead4"/><circle cx="255" cy="131" r="1.2" fill="#dbac60"/><circle cx="392" cy="210" r="0.65" fill="#f4ead4"/><circle cx="129" cy="289" r="0.65" fill="#dbac60"/><circle cx="266" cy="68" r="1.2" fill="#f4ead4"/><circle cx="3" cy="147" r="0.65" fill="#dbac60"/><circle cx="140" cy="226" r="0.65" fill="#f4ead4"/><circle cx="277" cy="5" r="1.2" fill="#dbac60"/><circle cx="14" cy="84" r="0.65" fill="#f4ead4"/><circle cx="151" cy="163" r="0.65" fill="#dbac60"/><circle cx="288" cy="242" r="1.2" fill="#f4ead4"/><circle cx="25" cy="21" r="0.65" fill="#dbac60"/><circle cx="162" cy="100" r="0.65" fill="#f4ead4"/><circle cx="299" cy="179" r="1.2" fill="#dbac60"/><circle cx="36" cy="258" r="0.65" fill="#f4ead4"/><circle cx="173" cy="37" r="0.65" fill="#dbac60"/><circle cx="310" cy="116" r="1.2" fill="#f4ead4"/><circle cx="47" cy="195" r="0.65" fill="#dbac60"/><circle cx="184" cy="274" r="0.65" fill="#f4ead4"/><circle cx="321" cy="53" r="1.2" fill="#dbac60"/><circle cx="58" cy="132" r="0.65" fill="#f4ead4"/><circle cx="195" cy="211" r="0.65" fill="#dbac60"/><circle cx="332" cy="290" r="1.2" fill="#f4ead4"/><circle cx="69" cy="69" r="0.65" fill="#dbac60"/><circle cx="206" cy="148" r="0.65" fill="#f4ead4"/></g></svg>